<svg xmlns="http://www.w3.org/2000/svg" width="53" height="50.35" viewBox="0 0 53 50.35">
  <path id="Path_86" data-name="Path 86" d="M85.3-829.65a5.1,5.1,0,0,1-3.743-1.557A5.1,5.1,0,0,1,80-834.95V-864.1a5.1,5.1,0,0,1,1.557-3.743A5.1,5.1,0,0,1,85.3-869.4H95.9v-5.3a5.1,5.1,0,0,1,1.557-3.743A5.1,5.1,0,0,1,101.2-880h10.6a5.1,5.1,0,0,1,3.743,1.557A5.1,5.1,0,0,1,117.1-874.7v5.3h10.6a5.1,5.1,0,0,1,3.743,1.557A5.1,5.1,0,0,1,133-864.1v29.15a5.1,5.1,0,0,1-1.557,3.743,5.1,5.1,0,0,1-3.743,1.557Zm15.9-39.75h10.6v-5.3H101.2Zm26.5,23.85H114.45v5.3H98.55v-5.3H85.3v10.6h42.4Zm-23.85,0h5.3v-5.3h-5.3Zm-18.55-5.3H98.55v-5.3h15.9v5.3H127.7V-864.1H85.3ZM106.5-848.2Z" transform="translate(-80 880)" fill="#fff"/>
</svg>
