<svg xmlns="http://www.w3.org/2000/svg" width="44" height="41.8" viewBox="0 0 44 41.8">
  <path id="Path_3916" data-name="Path 3916" d="M91-838.2a10.6,10.6,0,0,1-7.783-3.217A10.6,10.6,0,0,1,80-849.2a10.607,10.607,0,0,1,2.5-7.012,10.778,10.778,0,0,1,6.3-3.767v4.565a6.4,6.4,0,0,0-3.162,2.365A6.392,6.392,0,0,0,84.4-849.2a6.365,6.365,0,0,0,1.925,4.675A6.365,6.365,0,0,0,91-842.6a6.365,6.365,0,0,0,4.675-1.925A6.365,6.365,0,0,0,97.6-849.2v-2.2h12.925a3.351,3.351,0,0,1,1.072-.8,3.209,3.209,0,0,1,1.4-.3,3.182,3.182,0,0,1,2.337.963,3.182,3.182,0,0,1,.963,2.337,3.182,3.182,0,0,1-.963,2.338A3.183,3.183,0,0,1,113-845.9a3.207,3.207,0,0,1-1.4-.3,3.348,3.348,0,0,1-1.072-.8H101.78a10.779,10.779,0,0,1-3.767,6.3A10.607,10.607,0,0,1,91-838.2Zm22,0a10.582,10.582,0,0,1-5.583-1.513,11.073,11.073,0,0,1-3.933-3.987h5.885a5.655,5.655,0,0,0,1.7.825A6.786,6.786,0,0,0,113-842.6a6.365,6.365,0,0,0,4.675-1.925A6.365,6.365,0,0,0,119.6-849.2a6.364,6.364,0,0,0-1.925-4.675A6.364,6.364,0,0,0,113-855.8a6.574,6.574,0,0,0-2.035.3,6.172,6.172,0,0,0-1.76.907l-6.71-11.165a3.312,3.312,0,0,1-1.925-1.1A3.144,3.144,0,0,1,99.8-869a3.182,3.182,0,0,1,.963-2.338,3.183,3.183,0,0,1,2.338-.962,3.183,3.183,0,0,1,2.338.962A3.182,3.182,0,0,1,106.4-869v.467a1.3,1.3,0,0,1-.11.468l4.785,8.03a5,5,0,0,1,.935-.137q.495-.028.99-.028a10.6,10.6,0,0,1,7.782,3.218A10.6,10.6,0,0,1,124-849.2a10.6,10.6,0,0,1-3.217,7.783A10.6,10.6,0,0,1,113-838.2Zm-22-7.7a3.183,3.183,0,0,1-2.338-.963A3.182,3.182,0,0,1,87.7-849.2a3.07,3.07,0,0,1,.77-2.09,3.6,3.6,0,0,1,1.87-1.155l5.17-8.58a10.645,10.645,0,0,1-2.5-3.548A10.871,10.871,0,0,1,92.1-869a10.6,10.6,0,0,1,3.217-7.782A10.6,10.6,0,0,1,103.1-880a10.6,10.6,0,0,1,7.783,3.218A10.6,10.6,0,0,1,114.1-869h-4.4a6.365,6.365,0,0,0-1.925-4.675A6.365,6.365,0,0,0,103.1-875.6a6.365,6.365,0,0,0-4.675,1.925A6.365,6.365,0,0,0,96.5-869a6.454,6.454,0,0,0,1.43,4.152,6.3,6.3,0,0,0,3.63,2.283L94.135-850.19a2.036,2.036,0,0,1,.137.495,4.025,4.025,0,0,1,.027.495,3.182,3.182,0,0,1-.962,2.338A3.183,3.183,0,0,1,91-845.9Z" transform="translate(-80 880)" fill="#448fff"/>
</svg>
