<svg xmlns="http://www.w3.org/2000/svg" width="21.353" height="15" viewBox="0 0 21.353 15">
  <path id="Path_3930" data-name="Path 3930" d="M38-766v-2.271a2.813,2.813,0,0,1,.435-1.534,2.646,2.646,0,0,1,1.208-1.027,19.156,19.156,0,0,1,3.176-1.111,12.461,12.461,0,0,1,2.911-.338,12.309,12.309,0,0,1,2.9.338,19.319,19.319,0,0,1,3.164,1.111,2.719,2.719,0,0,1,1.22,1.027,2.757,2.757,0,0,1,.447,1.534V-766Zm16.908,0v-2.271a3.91,3.91,0,0,0-.773-2.5,5.657,5.657,0,0,0-2.029-1.582,23.952,23.952,0,0,1,3.14.568,11.066,11.066,0,0,1,2.391.857,3.738,3.738,0,0,1,1.256,1.135,2.648,2.648,0,0,1,.459,1.522V-766Zm-11.787-8.768a3.531,3.531,0,0,1-1.014-2.609,3.531,3.531,0,0,1,1.014-2.609A3.531,3.531,0,0,1,45.729-781a3.531,3.531,0,0,1,2.609,1.015,3.531,3.531,0,0,1,1.014,2.609,3.531,3.531,0,0,1-1.014,2.609,3.531,3.531,0,0,1-2.609,1.014A3.531,3.531,0,0,1,43.121-774.768Zm10.29,0a3.531,3.531,0,0,1-2.609,1.014,5.4,5.4,0,0,1-.592-.036,2.553,2.553,0,0,1-.592-.133,3.964,3.964,0,0,0,.882-1.486,6.05,6.05,0,0,0,.3-1.969,5.623,5.623,0,0,0-.3-1.92,5.135,5.135,0,0,0-.882-1.534,5.1,5.1,0,0,1,.592-.121A4.068,4.068,0,0,1,50.8-781a3.531,3.531,0,0,1,2.609,1.015,3.531,3.531,0,0,1,1.014,2.609A3.531,3.531,0,0,1,53.411-774.768Zm-13.961,7.319H52.01v-.821a1.381,1.381,0,0,0-.229-.749,1.263,1.263,0,0,0-.568-.507,16.307,16.307,0,0,0-2.923-1.039,11.681,11.681,0,0,0-2.56-.266,11.846,11.846,0,0,0-2.572.266,16.163,16.163,0,0,0-2.935,1.039,1.2,1.2,0,0,0-.556.507,1.436,1.436,0,0,0-.217.749Zm7.838-8.37a2.111,2.111,0,0,0,.616-1.558,2.112,2.112,0,0,0-.616-1.558,2.111,2.111,0,0,0-1.558-.616,2.111,2.111,0,0,0-1.558.616,2.112,2.112,0,0,0-.616,1.558,2.111,2.111,0,0,0,.616,1.558,2.111,2.111,0,0,0,1.558.616A2.111,2.111,0,0,0,47.287-775.819ZM45.729-767.449ZM45.729-777.377Z" transform="translate(-38 781)" fill="#fff"/>
</svg>
