<svg xmlns="http://www.w3.org/2000/svg" width="20.231" height="20.231" viewBox="0 0 20.231 20.231">
  <path id="Path_3931" data-name="Path 3931" d="M91.6-861.248a4.874,4.874,0,0,1-1.479-3.578A4.874,4.874,0,0,1,91.6-868.4a4.874,4.874,0,0,1,3.578-1.479,4.874,4.874,0,0,1,3.578,1.479,4.874,4.874,0,0,1,1.479,3.578,4.875,4.875,0,0,1-1.479,3.578,4.875,4.875,0,0,1-3.578,1.479A4.875,4.875,0,0,1,91.6-861.248Zm5.8-1.4a.269.269,0,0,0,.063-.3.284.284,0,0,0-.24-.2A3.445,3.445,0,0,1,96-863.651a2.84,2.84,0,0,1-.923-.974,2.84,2.84,0,0,1-.392-1.29,3.3,3.3,0,0,1,.19-1.315.329.329,0,0,0-.063-.316.256.256,0,0,0-.291-.088,2.876,2.876,0,0,0-2.314,1.922A2.881,2.881,0,0,0,92.7-862.7a2.9,2.9,0,0,0,2.327,1.138A2.9,2.9,0,0,0,97.4-862.652ZM90.116-869.884Zm-2.327,10.116-.506-3.186a6.772,6.772,0,0,1-1.012-.481,6.939,6.939,0,0,1-.936-.632L82.352-862.7,80-866.85l2.731-2a3.006,3.006,0,0,1-.063-.518q-.013-.291-.013-.518t.013-.518a3.008,3.008,0,0,1,.063-.518l-2.731-2,2.352-4.147,2.984,1.366a6.956,6.956,0,0,1,.936-.632,5.234,5.234,0,0,1,1.012-.455L87.789-880h4.653l.506,3.186a8.218,8.218,0,0,1,1.024.468,4.357,4.357,0,0,1,.923.645l2.984-1.366,2.352,4.147-2.251,1.593a4.929,4.929,0,0,0-.872-.316q-.443-.114-.923-.19l2.023-1.492L97.2-875.144l-2.681,1.163a5.635,5.635,0,0,0-1.315-1.1,4.264,4.264,0,0,0-1.618-.569l-.354-2.832H89l-.354,2.832a5.36,5.36,0,0,0-1.606.607,5.576,5.576,0,0,0-1.328,1.062l-2.681-1.163-1.012,1.821,2.377,1.745q-.1.43-.164.847a5.648,5.648,0,0,0-.063.847,5.648,5.648,0,0,0,.063.847q.063.417.164.847l-2.377,1.745,1.012,1.821,2.681-1.163a6.736,6.736,0,0,0,1.113.9,5.679,5.679,0,0,0,1.29.62,6.743,6.743,0,0,0,.658,2.478,7.5,7.5,0,0,0,1.441,2.023Zm.658-7.283q.126-.354.278-.708a5.238,5.238,0,0,1,.354-.683,1.736,1.736,0,0,1-.544-.62,1.762,1.762,0,0,1-.19-.822,1.706,1.706,0,0,1,.518-1.252,1.706,1.706,0,0,1,1.252-.518,1.761,1.761,0,0,1,.822.19,1.735,1.735,0,0,1,.62.544,5.256,5.256,0,0,1,.683-.354q.354-.152.708-.278a3.275,3.275,0,0,0-1.176-1.176,3.186,3.186,0,0,0-1.656-.443,3.169,3.169,0,0,0-2.327.961,3.169,3.169,0,0,0-.961,2.327,3.186,3.186,0,0,0,.443,1.656A3.276,3.276,0,0,0,88.447-867.052Z" transform="translate(-80 880)" fill="#fff"/>
</svg>
