<svg xmlns="http://www.w3.org/2000/svg" width="37.782" height="41.98" viewBox="0 0 37.782 41.98">
  <path id="Path_3919" data-name="Path 3919" d="M176.792-859.01Zm0,20.99a20.913,20.913,0,0,1-12.043-8.37A24.1,24.1,0,0,1,160-860.9v-12.8l16.792-6.3,16.792,6.3v13.748q0,.472-.052,1h-4.251q.053-.525.079-1t.026-.945v-9.918l-12.594-4.723L164.2-870.817v9.918a19.936,19.936,0,0,0,3.568,11.544,17.081,17.081,0,0,0,9.026,6.927Zm10.495,0v-6.3h-6.3v-4.2h6.3v-6.3h4.2v6.3h6.3v4.2h-6.3v6.3Zm-13.644-14.693h6.3l-1.207-6.769A3.967,3.967,0,0,0,180.387-861a4.175,4.175,0,0,0,.6-2.2,4.042,4.042,0,0,0-1.233-2.965,4.042,4.042,0,0,0-2.965-1.233,4.042,4.042,0,0,0-2.965,1.233,4.042,4.042,0,0,0-1.233,2.965,4.175,4.175,0,0,0,.6,2.2,3.967,3.967,0,0,0,1.653,1.522Z" transform="translate(-160 880)" fill="#448fff"/>
</svg>
