<svg id="Group_61" data-name="Group 61" xmlns="http://www.w3.org/2000/svg" xmlns:xlink="http://www.w3.org/1999/xlink" width="44" height="43.937" viewBox="0 0 44 43.937">
  <defs>
    <clipPath id="clip-path">
      <rect id="Rectangle_40" data-name="Rectangle 40" width="44" height="43.937" fill="#9944de"/>
    </clipPath>
  </defs>
  <g id="Group_47" data-name="Group 47" clip-path="url(#clip-path)">
    <path id="Path_119" data-name="Path 119" d="M3.483,25.744a18.246,18.246,0,0,0,4.9,9.318l.645.642a18.623,18.623,0,0,0,12.826,5.174,17.7,17.7,0,0,0,8.676-2.055L32.572,37.6a1.63,1.63,0,0,1,2.262.418,1.578,1.578,0,0,1-.253,1.924,4.233,4.233,0,0,1-.775.618,21.4,21.4,0,0,1-8.688,3.19,23.926,23.926,0,0,1-8.88-.561,22.054,22.054,0,0,1-9.581-5.344A21.527,21.527,0,0,1,.688,27.466,22.116,22.116,0,0,1,2.352,12.009a23.491,23.491,0,0,1,3.82-5.366A20.985,20.985,0,0,1,17.767.381,22.59,22.59,0,0,1,32.5,2.6a21.926,21.926,0,0,1,8.913,8.974c3.533,6.757,3.562,15.335-.594,21.77L39.689,35.09a2.612,2.612,0,0,1-.879.881,1.517,1.517,0,0,1-1.873-.395,1.546,1.546,0,0,1-.032-1.961,19.778,19.778,0,0,0,3.232-6.337,18.282,18.282,0,0,0,.612-7.6A18.252,18.252,0,0,0,35.485,8.69a19.086,19.086,0,0,0-9-5.1,20.42,20.42,0,0,0-5.739-.53,18.24,18.24,0,0,0-5.644,1.275A18.318,18.318,0,0,0,6.3,11.45,19.176,19.176,0,0,0,3.7,17.27a19.547,19.547,0,0,0-.216,8.475" transform="translate(0 0.001)" fill="#9944de"/>
    <path id="Path_120" data-name="Path 120" d="M43.93,69.088,37.394,65.16,34.239,63.2l.006-11.856,10.144,6.1,0,11.816a.611.611,0,0,1-.458-.165" transform="translate(-23.376 -35.051)" fill="#9944de"/>
    <path id="Path_121" data-name="Path 121" d="M82.816,66.168l-4.6,2.462-5.3,2.656,0-11.91,9.842-5.062.063,4.157Z" transform="translate(-49.78 -37.081)" fill="#9944de"/>
    <path id="Path_122" data-name="Path 122" d="M52.143,39.445,48.2,41.493l-4.562-2.837L38.3,35.286l9.551-4.93L52.7,33.224l5.343,3.145Z" transform="translate(-26.148 -20.724)" fill="#9944de"/>
  </g>
</svg>
