<svg xmlns="http://www.w3.org/2000/svg" width="36.797" height="34.957" viewBox="0 0 36.797 34.957">
  <path id="Path_3920" data-name="Path 3920" d="M83.68-845.043a3.543,3.543,0,0,1-2.6-1.081,3.543,3.543,0,0,1-1.081-2.6v-20.238a3.543,3.543,0,0,1,1.081-2.6,3.543,3.543,0,0,1,2.6-1.081h7.359v-3.68a3.543,3.543,0,0,1,1.081-2.6,3.543,3.543,0,0,1,2.6-1.081h7.359a3.543,3.543,0,0,1,2.6,1.081,3.543,3.543,0,0,1,1.081,2.6v3.68h7.359a3.543,3.543,0,0,1,2.6,1.081,3.543,3.543,0,0,1,1.081,2.6v20.238a3.543,3.543,0,0,1-1.081,2.6,3.543,3.543,0,0,1-2.6,1.081Zm11.039-27.6h7.359v-3.68H94.719Zm18.4,16.559h-9.2v3.68H92.879v-3.68h-9.2v7.359h29.437Zm-16.559,0h3.68v-3.68h-3.68Zm-12.879-3.68h9.2v-3.68h11.039v3.68h9.2v-9.2H83.68ZM98.4-857.922Z" transform="translate(-80 880)" fill="#9944de"/>
</svg>
