<svg xmlns="http://www.w3.org/2000/svg" width="53" height="50.35" viewBox="0 0 53 50.35">
  <path id="Path_8" data-name="Path 8" d="M93.25-829.65a12.771,12.771,0,0,1-9.374-3.875A12.771,12.771,0,0,1,80-842.9a12.777,12.777,0,0,1,3.014-8.447,12.982,12.982,0,0,1,7.586-4.538v5.5a7.71,7.71,0,0,0-3.809,2.849A7.7,7.7,0,0,0,85.3-842.9a7.667,7.667,0,0,0,2.319,5.631,7.667,7.667,0,0,0,5.631,2.319,7.667,7.667,0,0,0,5.631-2.319A7.667,7.667,0,0,0,101.2-842.9v-2.65h15.569a4.037,4.037,0,0,1,1.292-.961,3.866,3.866,0,0,1,1.689-.364,3.833,3.833,0,0,1,2.816,1.159,3.833,3.833,0,0,1,1.159,2.816,3.834,3.834,0,0,1-1.159,2.816,3.834,3.834,0,0,1-2.816,1.159,3.863,3.863,0,0,1-1.689-.365,4.032,4.032,0,0,1-1.292-.961H106.235a12.984,12.984,0,0,1-4.538,7.586A12.777,12.777,0,0,1,93.25-829.65Zm26.5,0a12.746,12.746,0,0,1-6.724-1.822,13.338,13.338,0,0,1-4.737-4.8h7.089a6.811,6.811,0,0,0,2.054.994,8.173,8.173,0,0,0,2.319.331,7.667,7.667,0,0,0,5.631-2.319A7.667,7.667,0,0,0,127.7-842.9a7.666,7.666,0,0,0-2.319-5.631,7.666,7.666,0,0,0-5.631-2.319,7.917,7.917,0,0,0-2.451.365,7.435,7.435,0,0,0-2.12,1.093L107.1-862.841a3.989,3.989,0,0,1-2.319-1.325,3.786,3.786,0,0,1-.928-2.584,3.834,3.834,0,0,1,1.159-2.816,3.834,3.834,0,0,1,2.816-1.159,3.834,3.834,0,0,1,2.816,1.159,3.833,3.833,0,0,1,1.159,2.816v.563a1.57,1.57,0,0,1-.132.563l5.764,9.672a6.015,6.015,0,0,1,1.126-.165q.6-.033,1.193-.033a12.769,12.769,0,0,1,9.374,3.876A12.77,12.77,0,0,1,133-842.9a12.771,12.771,0,0,1-3.876,9.375A12.771,12.771,0,0,1,119.75-829.65Zm-26.5-9.275a3.834,3.834,0,0,1-2.816-1.159,3.834,3.834,0,0,1-1.159-2.816,3.7,3.7,0,0,1,.927-2.517,4.332,4.332,0,0,1,2.253-1.391l6.228-10.335a12.821,12.821,0,0,1-3.014-4.273,13.094,13.094,0,0,1-1.093-5.333,12.77,12.77,0,0,1,3.876-9.374A12.77,12.77,0,0,1,107.825-880a12.77,12.77,0,0,1,9.374,3.876,12.77,12.77,0,0,1,3.876,9.374h-5.3a7.667,7.667,0,0,0-2.319-5.631,7.667,7.667,0,0,0-5.631-2.319,7.667,7.667,0,0,0-5.631,2.319,7.667,7.667,0,0,0-2.319,5.631,7.774,7.774,0,0,0,1.723,5A7.589,7.589,0,0,0,105.97-859l-8.944,14.906a2.453,2.453,0,0,1,.166.6,4.848,4.848,0,0,1,.033.6,3.834,3.834,0,0,1-1.159,2.816A3.834,3.834,0,0,1,93.25-838.925Z" transform="translate(-80 880)" fill="#fff"/>
</svg>
