<svg xmlns="http://www.w3.org/2000/svg" width="44.704" height="49.671" viewBox="0 0 44.704 49.671">
  <path id="Path_84" data-name="Path 84" d="M179.868-855.165Zm0,24.835a24.744,24.744,0,0,1-14.249-9.9A28.521,28.521,0,0,1,160-857.4v-15.15L179.868-880l19.868,7.451v16.267q0,.559-.062,1.18h-5.029q.062-.621.093-1.18t.031-1.118v-11.735l-14.9-5.588-14.9,5.588V-857.4a23.588,23.588,0,0,0,4.222,13.659,20.211,20.211,0,0,0,10.679,8.2Zm12.418,0v-7.451h-7.451v-4.967h7.451V-850.2h4.967v7.451H204.7v4.967h-7.451v7.451Zm-16.143-17.385h7.451l-1.428-8.009a4.693,4.693,0,0,0,1.956-1.8,4.94,4.94,0,0,0,.714-2.608,4.783,4.783,0,0,0-1.459-3.508,4.783,4.783,0,0,0-3.508-1.459,4.783,4.783,0,0,0-3.508,1.459,4.783,4.783,0,0,0-1.459,3.508,4.94,4.94,0,0,0,.714,2.608,4.693,4.693,0,0,0,1.956,1.8Z" transform="translate(-160 880)" fill="#fff"/>
</svg>
