<svg id="Group_48" data-name="Group 48" xmlns="http://www.w3.org/2000/svg" xmlns:xlink="http://www.w3.org/1999/xlink" width="60.397" height="60.31" viewBox="0 0 60.397 60.31">
  <defs>
    <clipPath id="clip-path">
      <rect id="Rectangle_40" data-name="Rectangle 40" width="60.397" height="60.31" fill="#fff"/>
    </clipPath>
  </defs>
  <g id="Group_47" data-name="Group 47" clip-path="url(#clip-path)">
    <path id="Path_119" data-name="Path 119" d="M4.781,35.339a25.045,25.045,0,0,0,6.732,12.79l.885.881A25.564,25.564,0,0,0,30,56.112a24.29,24.29,0,0,0,11.909-2.821l2.8-1.677a2.237,2.237,0,0,1,3.1.574,2.166,2.166,0,0,1-.347,2.641,5.811,5.811,0,0,1-1.064.849,29.368,29.368,0,0,1-11.926,4.378,32.842,32.842,0,0,1-12.19-.77A30.273,30.273,0,0,1,9.136,51.95,29.55,29.55,0,0,1,.944,37.7,30.358,30.358,0,0,1,3.229,16.484,32.245,32.245,0,0,1,8.472,9.118,28.805,28.805,0,0,1,24.388.523a31.008,31.008,0,0,1,20.218,3.05A30.1,30.1,0,0,1,56.842,15.892c4.849,9.275,4.89,21.049-.816,29.882L54.48,48.167a3.586,3.586,0,0,1-1.207,1.209,2.083,2.083,0,0,1-2.571-.542,2.122,2.122,0,0,1-.044-2.691,27.148,27.148,0,0,0,4.437-8.7,25.1,25.1,0,0,0,.84-10.434,25.054,25.054,0,0,0-7.227-15.081,26.2,26.2,0,0,0-12.347-7,28.03,28.03,0,0,0-7.877-.728,25.038,25.038,0,0,0-7.747,1.75A25.144,25.144,0,0,0,8.651,15.718a26.323,26.323,0,0,0-3.574,7.988,26.831,26.831,0,0,0-.3,11.633" transform="translate(0 0.001)" fill="#fff"/>
    <path id="Path_120" data-name="Path 120" d="M47.541,75.7,38.569,70.31l-4.33-2.7.009-16.275,13.925,8.369,0,16.22a.838.838,0,0,1-.629-.226" transform="translate(-19.328 -28.98)" fill="#fff"/>
    <path id="Path_121" data-name="Path 121" d="M86.506,70.585l-6.31,3.38L72.918,77.61l0-16.348,13.51-6.949.087,5.706Z" transform="translate(-41.159 -30.659)" fill="#fff"/>
    <path id="Path_122" data-name="Path 122" d="M57.3,42.833l-5.414,2.81-6.262-3.894L38.3,37.123,51.41,30.355l6.66,3.938L65.4,38.61Z" transform="translate(-21.62 -17.135)" fill="#fff"/>
  </g>
</svg>
